name ./resultDataOpenSim/trcMotMarkerGrf/sub09/grf-05-03.mot
datacolumns 19
datarows 22
range 1.02000000 1.10400000
endheader

                time	     ground_force_vx	     ground_force_vy	     ground_force_vz	     ground_force_px	     ground_force_py	     ground_force_pz	   l_ground_force_vx	   l_ground_force_vy	   l_ground_force_vz	   l_ground_force_px	   l_ground_force_py	   l_ground_force_pz	     ground_torque_x	     ground_torque_y	     ground_torque_z	   l_ground_torque_x	   l_ground_torque_y	   l_ground_torque_z	
          1.02000000	          0.00000000	          0.00000000	          0.00000000	          0.00000000	          0.00000000	          0.00000000	         23.88500346	        405.92406303	          4.86708949	          0.12937465	         -0.10000000	          0.06970488	          0.00000000	          0.00000000	          0.00000000	          0.00000000	         -4.41029281	          0.00000000	
          1.02400000	          0.00000000	          0.00000000	          0.00000000	          0.00000000	          0.00000000	          0.00000000	         27.04080426	        416.92732565	          4.13982214	          0.12963441	         -0.10000000	          0.06984641	          0.00000000	          0.00000000	          0.00000000	          0.00000000	         -4.69979718	          0.00000000	
          1.02800000	          0.00000000	          0.00000000	          0.00000000	          0.00000000	          0.00000000	          0.00000000	         30.26203910	        429.08837660	          3.55659381	          0.12973313	         -0.10000000	          0.06994046	          0.00000000	          0.00000000	          0.00000000	          0.00000000	         -4.96621531	          0.00000000	
          1.03200000	          0.00000000	          0.00000000	          0.00000000	          0.00000000	          0.00000000	          0.00000000	         33.55582895	        442.38294070	          3.15431612	          0.12970151	         -0.10000000	          0.07002010	          0.00000000	          0.00000000	          0.00000000	          0.00000000	         -5.20391945	          0.00000000	
          1.03600000	          0.00000000	          0.00000000	          0.00000000	          0.00000000	          0.00000000	          0.00000000	         36.91051206	        456.71787811	          2.95678328	          0.12957613	         -0.10000000	          0.07009466	          0.00000000	          0.00000000	          0.00000000	          0.00000000	         -5.40927432	          0.00000000	
          1.04000000	          0.00000000	          0.00000000	          0.00000000	          0.00000000	          0.00000000	          0.00000000	         40.32207124	        471.96352295	          2.96722118	          0.12941464	         -0.10000000	          0.07015369	          0.00000000	          0.00000000	          0.00000000	          0.00000000	         -5.58049400	          0.00000000	
          1.04400000	          0.00000000	          0.00000000	          0.00000000	          0.00000000	          0.00000000	          0.00000000	         43.80283377	        488.00704997	          3.17794002	          0.12929373	         -0.10000000	          0.07019067	          0.00000000	          0.00000000	          0.00000000	          0.00000000	         -5.71736361	          0.00000000	
          1.04800000	          0.00000000	          0.00000000	          0.00000000	          0.00000000	          0.00000000	          0.00000000	         47.37695570	        504.77681164	          3.59009423	          0.12926221	         -0.10000000	          0.07019911	          0.00000000	          0.00000000	          0.00000000	          0.00000000	         -5.82096789	          0.00000000	
          1.05200000	          0.00000000	          0.00000000	          0.00000000	          0.00000000	          0.00000000	          0.00000000	         51.07345184	        522.20776457	          4.21317740	          0.12934085	         -0.10000000	          0.07017898	          0.00000000	          0.00000000	          0.00000000	          0.00000000	         -5.89344174	          0.00000000	
          1.05600000	          0.00000000	          0.00000000	          0.00000000	          0.00000000	          0.00000000	          0.00000000	         54.91379956	        540.19773151	          5.04181250	          0.12954072	         -0.10000000	          0.07014235	          0.00000000	          0.00000000	          0.00000000	          0.00000000	         -5.93764422	          0.00000000	
          1.06000000	          0.00000000	          0.00000000	          0.00000000	          0.00000000	          0.00000000	          0.00000000	         58.90588184	        558.60194114	          6.04302009	          0.12983327	         -0.10000000	          0.07009136	          0.00000000	          0.00000000	          0.00000000	          0.00000000	         -5.95670091	          0.00000000	
          1.06400000	          0.00000000	          0.00000000	          0.00000000	          0.00000000	          0.00000000	          0.00000000	         63.06078549	        577.25287542	          7.17096093	          0.13014196	         -0.10000000	          0.07001328	          0.00000000	          0.00000000	          0.00000000	          0.00000000	         -5.95356903	          0.00000000	
          1.06800000	          0.00000000	          0.00000000	          0.00000000	          0.00000000	          0.00000000	          0.00000000	         67.41922833	        595.96679260	          8.38274760	          0.13039150	         -0.10000000	          0.06990576	          0.00000000	          0.00000000	          0.00000000	          0.00000000	         -5.93088734	          0.00000000	
          1.07200000	          0.00000000	          0.00000000	          0.00000000	          0.00000000	          0.00000000	          0.00000000	         72.05652596	        614.52471797	          9.63770047	          0.13052416	         -0.10000000	          0.06977704	          0.00000000	          0.00000000	          0.00000000	          0.00000000	         -5.89116931	          0.00000000	
          1.07600000	          0.00000000	          0.00000000	          0.00000000	          0.00000000	          0.00000000	          0.00000000	         77.05827770	        632.66373098	         10.90055920	          0.13049826	         -0.10000000	          0.06963264	          0.00000000	          0.00000000	          0.00000000	          0.00000000	         -5.83709717	          0.00000000	
          1.08000000	          0.00000000	          0.00000000	          0.00000000	          0.00000000	          0.00000000	          0.00000000	         82.48592739	        650.12726062	         12.15262448	          0.13034408	         -0.10000000	          0.06948674	          0.00000000	          0.00000000	          0.00000000	          0.00000000	         -5.77163007	          0.00000000	
          1.08400000	          0.00000000	          0.00000000	          0.00000000	          0.00000000	          0.00000000	          0.00000000	         88.35374475	        666.75040101	         13.38556088	          0.13014957	         -0.10000000	          0.06935335	          0.00000000	          0.00000000	          0.00000000	          0.00000000	         -5.69782203	          0.00000000	
          1.08800000	          0.00000000	          0.00000000	          0.00000000	          0.00000000	          0.00000000	          0.00000000	         94.62728830	        682.48834980	         14.58425114	          0.12998429	         -0.10000000	          0.06923004	          0.00000000	          0.00000000	          0.00000000	          0.00000000	         -5.61839882	          0.00000000	
          1.09200000	          0.00000000	          0.00000000	          0.00000000	          0.00000000	          0.00000000	          0.00000000	        101.23096255	        697.37801278	         15.73147801	          0.12989949	         -0.10000000	          0.06912302	          0.00000000	          0.00000000	          0.00000000	          0.00000000	         -5.53527134	          0.00000000	
          1.09600000	          0.00000000	          0.00000000	          0.00000000	          0.00000000	          0.00000000	          0.00000000	        108.04787978	        711.49904900	         16.82167883	          0.12991263	         -0.10000000	          0.06904400	          0.00000000	          0.00000000	          0.00000000	          0.00000000	         -5.44931739	          0.00000000	
          1.10000000	          0.00000000	          0.00000000	          0.00000000	          0.00000000	          0.00000000	          0.00000000	        114.92666369	        724.91895700	         17.84582170	          0.13001311	         -0.10000000	          0.06900633	          0.00000000	          0.00000000	          0.00000000	          0.00000000	         -5.36067545	          0.00000000	
          1.10400000	          0.00000000	          0.00000000	          0.00000000	          0.00000000	          0.00000000	          0.00000000	        121.71236976	        737.63447119	         18.76042752	          0.13020563	         -0.10000000	          0.06903546	          0.00000000	          0.00000000	          0.00000000	          0.00000000	         -5.26935314	          0.00000000	
